HIERARCHY
ROOT hip
{
	OFFSET 0.000000 0.000000 0.000000 
	CHANNELS 6 Xposition Yposition Zposition Xrotation Zrotation Yrotation
	JOINT abdomen
	{
		OFFSET 0.000000 3.402643 0.000000 
		CHANNELS 3 Xrotation Zrotation Yrotation
		JOINT chest
		{
			OFFSET 0.000000 8.438565 -0.680529 
			CHANNELS 3 Xrotation Zrotation Yrotation
			JOINT neck
			{
				OFFSET 0.000000 10.207942 -0.272212 
				CHANNELS 3 Xrotation Zrotation Yrotation
				JOINT head
				{
					OFFSET 0.000000 3.130431 0.000000 
					CHANNELS 3 Xrotation Zrotation Yrotation
					End Site
					{
						OFFSET 0.000000 3.130435 0.000000 
					}
				}
			}
			JOINT lCollar
			{
				OFFSET 3.470700 6.669187 -0.816635 
				CHANNELS 3 Yrotation Zrotation Xrotation
				JOINT lShldr
				{
					OFFSET 3.198488 0.000000 0.000000 
					CHANNELS 3 Zrotation Yrotation Xrotation
					JOINT lForeArm
					{
						OFFSET 10.139888 0.000000 0.000000 
						CHANNELS 3 Yrotation Zrotation Xrotation
						JOINT lHand
						{
							OFFSET 8.370511 0.000000 0.000000 
							CHANNELS 3 Zrotation Yrotation Xrotation
							End Site
							{
								OFFSET 4.083176 0.000000 0.000000 
							}
						}
					}
				}
			}
			JOINT rCollar
			{
				OFFSET -3.470700 6.669187 -0.816635 
				CHANNELS 3 Yrotation Zrotation Xrotation
				JOINT rShldr
				{
					OFFSET -3.198488 0.000000 0.000000 
					CHANNELS 3 Zrotation Yrotation Xrotation
					JOINT rForeArm
					{
						OFFSET -10.139888 0.000000 0.000000 
						CHANNELS 3 Yrotation Zrotation Xrotation
						JOINT rHand
						{
							OFFSET -8.370511 0.000000 0.000000 
							CHANNELS 3 Zrotation Yrotation Xrotation
							End Site
							{
								OFFSET -4.083176 0.000000 0.000000 
							}
						}
					}
				}
			}
		}
	}
	JOINT lThigh
	{
		OFFSET 5.308129 -1.633274 1.361059 
		CHANNELS 3 Xrotation Zrotation Yrotation
		JOINT lShin
		{
			OFFSET -2.041588 -20.007561 0.000000 
			CHANNELS 3 Xrotation Zrotation Yrotation
			JOINT lFoot
			{
				OFFSET 0.000000 -19.190928 -1.224953 
				CHANNELS 3 Xrotation Yrotation Zrotation
				End Site
				{
					OFFSET 0.000000 -2.449906 4.627600 
				}
			}
		}
	}
	JOINT rThigh
	{
		OFFSET -5.308129 -1.633274 1.361059 
		CHANNELS 3 Xrotation Zrotation Yrotation
		JOINT rShin
		{
			OFFSET 2.041588 -20.007561 0.000000 
			CHANNELS 3 Xrotation Zrotation Yrotation
			JOINT rFoot
			{
				OFFSET 0.000000 -19.190928 -1.224953 
				CHANNELS 3 Xrotation Yrotation Zrotation
				End Site
				{
					OFFSET 0.000000 -2.449906 4.627600 
				}
			}
		}
	}
}
MOTION
Frames: 8
Frame Time: 0.033333
109.249779 51.403511 -3.906240 2.275391 1.748047 24.326471 29.104731 -9.964404 -8.022726 -11.279297 7.988281 3.106826 51.063168 8.107644 2.471410 -40.117191 -0.898438 2.373047 2.000000 -2.000000 0.000000 -74.345703 27.431641 13.588483 -69.569931 -1.219068 -2.673659 10.358526 68.830658 13.424367 -2.000000 2.000000 0.000000 73.818359 -33.554688 9.096167 79.547371 0.754351 -2.925852 -43.486717 -67.341774 43.070202 5.151320 12.922662 13.049205 11.245973 -5.136316 -1.180993 -4.834559 -0.807869 -11.684056 4.068344 -23.314289 -19.346069 8.602002 4.722658 0.879059 1.218509 6.850820 13.025081 
109.226883 51.411392 -3.950374 2.275391 1.914063 24.687824 29.104731 -9.964404 -8.022726 -11.279297 7.988281 2.931044 51.063168 8.107644 2.471410 -40.087891 -0.546875 2.265535 2.000000 -2.000000 0.000000 -74.335938 27.617188 13.427734 -69.394135 -1.228818 -2.673093 10.399912 68.831131 13.199468 -2.000000 2.000000 0.000000 74.208984 -33.486328 8.676253 79.534439 0.581837 -2.818492 -43.393322 -67.150810 43.213905 5.143723 12.936389 12.851938 11.231729 -5.144086 -1.180826 -4.788799 -1.164457 -11.494247 4.440700 -23.471668 -19.608652 8.775114 4.711243 0.882612 1.540269 6.559977 13.063164 
109.183365 51.419262 -4.000052 2.109375 2.080078 25.215197 29.289619 -10.115108 -8.122593 -11.279297 7.988281 2.931044 51.063168 8.107644 2.471410 -39.882816 -0.224609 1.806641 2.000000 -2.000000 0.000000 -74.316406 27.792971 13.676430 -69.569931 -1.219068 -2.673659 10.582999 69.360878 13.424623 -2.000000 2.000000 0.000000 74.238281 -33.125000 8.578649 79.710228 0.572087 -2.819055 -43.227589 -67.202400 42.903950 5.155148 13.114585 12.912766 11.218547 -5.171944 -1.200853 -4.889659 -1.711051 -11.244147 4.628075 -23.475279 -19.656744 8.775116 4.711239 0.882612 1.378923 6.269720 13.314975 
109.128052 51.427147 -4.059033 1.933594 2.099610 25.732780 29.309650 -10.272592 -8.204198 -11.103516 7.978517 2.949219 51.063168 8.107644 2.471410 -39.658207 0.273437 1.542969 2.000000 -2.000000 0.000000 -74.101563 28.134768 13.490935 -69.569931 -1.219068 -2.673659 10.892403 69.892242 14.488407 -2.000000 2.000000 0.000000 74.560547 -32.998047 8.222656 79.723160 0.744602 -2.926415 -44.328686 -67.281395 44.096954 5.155146 13.114586 12.912767 11.045946 -5.173075 -1.177378 -4.668766 -2.081005 -10.902428 4.989106 -23.650871 -19.742935 8.951553 4.711744 0.906327 1.046971 5.591341 13.524600 
109.090332 51.419262 -4.103261 1.757813 2.275391 26.074221 29.309650 -10.272592 -8.204198 -11.103516 7.978517 2.949219 51.063168 8.107644 2.471410 -39.648438 0.449219 1.054688 2.000000 -2.000000 0.000000 -73.906250 28.105469 13.779296 -69.733978 -1.048805 -2.605338 10.146324 70.469749 13.620333 -2.000000 2.000000 0.000000 74.560547 -32.812504 8.564453 79.710228 0.572087 -2.819055 -44.271622 -67.524643 43.721798 5.155165 13.114579 12.912763 11.046412 -5.173299 -1.157912 -4.679213 -2.312900 -10.609698 5.151608 -23.468433 -19.755789 8.951342 4.711626 0.916065 0.864005 5.504303 14.110801 
109.066849 51.442905 -4.146734 1.757813 2.275391 26.435547 29.328707 -10.417548 -8.291549 -11.103516 7.978517 2.949219 51.063168 8.107644 2.471410 -39.628906 0.605469 0.898438 2.000000 -2.000000 0.000000 -73.496094 28.046875 14.194047 -69.557915 -1.057988 -2.595025 11.461641 70.378235 14.563542 -2.000000 2.000000 0.000000 74.130859 -32.587887 8.974609 79.534439 0.581837 -2.818492 -44.665096 -67.513062 43.122711 5.155158 13.114582 12.912766 11.052799 -5.181602 -1.177996 -4.716397 -2.624676 -10.362557 5.348496 -23.453190 -19.972181 9.134751 4.720155 0.911826 1.199742 5.468148 14.056283 
109.049377 51.442905 -4.157174 1.757813 2.275391 26.611328 29.145237 -10.663465 -8.220681 -11.103516 7.978517 2.949219 51.063168 8.107644 2.471410 -39.628906 0.605469 0.898438 2.000000 -2.000000 0.000000 -73.505859 27.861328 14.345702 -69.382118 -1.067738 -2.594458 11.967305 69.603073 14.426898 -2.000000 2.000000 0.000000 73.906250 -32.382813 9.633444 79.358658 0.591586 -2.817928 -45.245884 -67.667603 42.681240 5.155142 13.114588 12.912767 10.862147 -5.173942 -1.152193 -4.876707 -2.781493 -10.280075 5.348493 -23.453190 -19.972183 9.297847 4.709112 0.787902 0.845747 5.537846 14.363121 
109.035828 51.442905 -4.149628 1.757813 2.275391 26.611328 28.952499 -10.762121 -8.040748 -11.103516 7.978517 2.949219 51.063168 8.107644 2.471410 -39.824219 0.468750 0.869219 2.000000 -2.000000 0.000000 -73.632813 27.500000 14.248046 -69.206329 -1.077487 -2.593891 12.332773 69.207367 14.538174 -2.000000 2.000000 0.000000 73.300774 -32.119141 9.765624 79.195518 0.773285 -2.914979 -45.430088 -67.784340 42.428192 5.134697 13.123292 12.694936 11.069250 -5.147706 -1.147778 -5.021036 -2.745256 -10.220297 5.327310 -23.459272 -19.801098 9.302006 4.701371 0.777659 0.857912 5.633369 14.583600 
